# xmcd
#
# Track frame offsets: 
#        150
#        11553
#        32182
#        44561
#        73289
#        94893
#        111547
#        129325
#        147554
#        162482
#        177035
#
# Disc length: 2700 seconds
#
# Revision: 0
# Processed by: cddbd v1.5.2PL0 Copyright (c) Steve Scherf et al.
# Submitted via: ExactAudioCopy v0.99pb5
#
DISCID=a50a8a0b
DTITLE=Eric Clapton - Slowhand Masterfile 2
DYEAR=1971
DGENRE=Blues
TTITLE0=Chocolate
TTITLE1=It's Hard (To Find Friends)
TTITLE2=Till I See You Again
TTITLE3=Instrumental
TTITLE4=Evil
TTITLE5=Snake Lake Blues
TTITLE6=I've Been
TTITLE7=Mean Old Frisco
TTITLE8=One More Chance
TTITLE9=High
TTITLE10=It's Got to Get Better
EXTD=
EXTT0=
EXTT1=
EXTT2=
EXTT3=
EXTT4=
EXTT5=
EXTT6=
EXTT7=
EXTT8=
EXTT9=
EXTT10=
PLAYORDER=
